<?xml version="1.0" standalone="no"?>
<!DOCTYPE svg PUBLIC "-//W3C//DTD SVG 20010904//EN"
 "http://www.w3.org/TR/2001/REC-SVG-20010904/DTD/svg10.dtd">
<svg version="1.0" xmlns="http://www.w3.org/2000/svg"
 width="1080.000000pt" height="1080.000000pt" viewBox="0 0 1080.000000 1080.000000"
 preserveAspectRatio="xMidYMid meet">

<g transform="translate(0.000000,1080.000000) scale(0.100000,-0.100000)"
fill="#000000" stroke="none">
<path d="M5245 6061 c-302 -334 -372 -407 -381 -395 -7 8 -99 187 -205 399
l-194 384 -50 6 c-27 3 -113 5 -190 3 l-139 -3 -467 -1055 c-258 -580 -468
-1058 -468 -1063 -1 -4 137 -6 306 -5 l307 3 91 205 91 205 334 0 334 0 81
-205 81 -205 302 -3 c166 -1 302 0 302 4 0 5 -84 243 -176 497 -7 21 -10 36
-6 33 5 -3 112 -124 238 -270 l229 -266 538 0 537 0 0 429 0 428 203 194 c111
106 204 196 205 201 2 4 -102 8 -232 8 l-236 0 0 210 0 210 343 0 342 1 140
221 c77 122 142 225 143 230 2 4 -455 8 -1015 8 l-1019 0 -369 -409z m983
-992 l-3 -403 -413 388 -413 388 413 408 413 407 3 -393 c1 -216 1 -574 0
-795z m-1819 407 c72 -125 131 -230 131 -232 0 -2 -124 -4 -276 -4 -243 0
-275 2 -270 15 5 15 222 394 253 444 8 13 18 19 22 15 5 -5 67 -112 140 -238z"/>
</g>
</svg>
