<?xml version="1.0" standalone="no"?>
<!DOCTYPE svg PUBLIC "-//W3C//DTD SVG 20010904//EN"
 "http://www.w3.org/TR/2001/REC-SVG-20010904/DTD/svg10.dtd">
<svg version="1.0" xmlns="http://www.w3.org/2000/svg"
 width="500.000000pt" height="500.000000pt" viewBox="0 0 500.000000 500.000000"
 preserveAspectRatio="xMidYMid meet">
<metadata>
Created by potrace 1.16, written by Peter Selinger 2001-2019
</metadata>
<g transform="translate(0.000000,500.000000) scale(0.100000,-0.100000)"
fill="#000000" stroke="none">
<path d="M560 3155 c0 -13 23 -15 151 -15 l151 0 -7 -37 c-4 -21 -9 -41 -11
-45 -3 -5 -75 -8 -160 -8 -130 0 -154 -2 -154 -15 0 -13 23 -15 150 -15 l150
0 0 -24 c0 -56 0 -56 -166 -56 -147 0 -154 -1 -154 -20 0 -19 7 -20 150 -20
l150 0 -6 -27 c-3 -16 -7 -34 -9 -40 -3 -9 -47 -13 -157 -15 -136 -3 -153 -5
-156 -20 -3 -17 9 -18 148 -18 135 0 151 -2 146 -16 -3 -9 -6 -27 -6 -40 l0
-24 -160 0 c-136 0 -160 -2 -160 -15 0 -13 23 -15 150 -15 163 0 156 3 144
-59 l-6 -31 -159 0 c-135 0 -159 -2 -159 -15 0 -13 24 -15 155 -15 100 0 155
-4 155 -10 0 -6 -6 -26 -14 -45 l-15 -34 -152 -3 c-111 -2 -153 -6 -157 -15
-3 -10 32 -13 153 -13 l156 0 -7 -37 c-4 -21 -9 -41 -11 -45 -2 -5 -74 -8
-159 -8 -130 0 -154 -2 -154 -15 0 -13 23 -15 151 -15 l152 0 -7 -31 c-3 -17
-6 -35 -6 -40 0 -5 -72 -9 -160 -9 -153 0 -160 -1 -160 -20 0 -19 7 -20 154
-20 l153 0 -10 -40 -11 -40 -158 0 c-134 0 -158 -2 -158 -15 0 -13 24 -15 156
-15 147 0 156 -1 151 -19 -2 -10 0 -26 5 -35 8 -14 31 -16 172 -16 l163 0 11
43 c11 42 32 131 51 217 16 78 78 351 106 470 51 216 55 235 71 310 9 41 18
85 21 98 l5 22 -331 0 c-288 0 -331 -2 -331 -15z"/>
<path d="M1333 3138 c-83 -54 -122 -111 -143 -212 -32 -156 16 -244 215 -396
111 -86 138 -135 101 -186 -18 -24 -97 -25 -144 0 -38 20 -95 94 -113 148 -7
21 -16 38 -21 38 -5 0 -17 -15 -28 -32 -10 -18 -48 -78 -84 -132 -49 -75 -63
-103 -56 -116 13 -24 131 -137 171 -164 81 -53 138 -69 254 -69 85 -1 117 3
142 16 25 13 59 17 160 17 l128 0 -53 27 c-52 26 -162 133 -162 158 0 7 11 32
24 56 14 24 47 87 74 139 28 52 54 96 59 97 4 2 21 -24 37 -58 18 -37 45 -73
71 -95 35 -29 50 -34 92 -34 57 0 83 20 83 65 0 29 -45 80 -125 140 -172 130
-215 194 -215 322 0 65 5 88 25 130 36 71 107 126 215 166 8 3 -136 6 -320 6
l-336 1 -51 -32z"/>
<path d="M2349 3145 c58 -28 114 -79 150 -138 l23 -38 -62 -94 c-50 -76 -67
-95 -86 -95 -13 0 -24 3 -24 8 0 7 -28 42 -74 94 -75 82 -196 75 -196 -12 0
-25 13 -43 72 -98 127 -117 196 -190 235 -249 37 -57 38 -59 38 -153 -1 -83
-4 -102 -27 -145 -32 -63 -91 -123 -149 -152 l-44 -23 84 0 c78 0 83 -1 78
-20 -5 -19 0 -20 159 -20 105 0 164 4 164 10 0 6 12 28 26 50 l27 40 167 0
168 0 6 33 c4 17 17 52 29 76 l22 43 76 2 c57 2 84 7 105 22 22 14 49 19 114
21 47 1 88 2 91 2 4 1 33 26 65 56 33 30 62 55 66 55 5 0 8 23 8 51 0 40 7 63
34 109 33 56 34 58 15 76 -22 23 -89 205 -89 243 0 38 10 48 55 56 96 15 122
26 137 57 12 26 12 39 1 82 -15 59 -33 76 -82 76 -64 0 -86 -35 -76 -116 l6
-54 -38 0 c-22 0 -43 -4 -48 -9 -9 -7 -75 -25 -172 -47 -19 -4 -23 -11 -23
-42 0 -44 59 -208 90 -250 l22 -29 -36 -47 c-35 -46 -54 -105 -41 -126 7 -12
-42 -69 -60 -70 -7 0 -10 137 -10 392 l0 393 -525 2 -525 3 54 -25z m687 -702
c-9 -9 -196 -8 -196 1 0 4 22 45 48 90 27 44 71 119 98 166 l49 85 3 -169 c1
-93 0 -171 -2 -173z"/>
<path d="M4155 3144 c-12 -19 -16 -42 -13 -82 l3 -56 -33 -2 c-17 -1 -38 -6
-45 -12 -11 -9 -120 -37 -172 -44 -27 -4 -32 -69 -10 -129 9 -24 21 -60 28
-79 6 -19 23 -53 38 -74 16 -21 25 -44 21 -50 -4 -6 -20 -31 -37 -55 -21 -31
-30 -56 -30 -88 -1 -40 -6 -48 -70 -108 l-68 -65 -67 6 c-56 6 -74 3 -116 -16
-32 -15 -77 -24 -128 -28 -78 -5 -78 -5 -92 -38 l-14 -34 -70 0 c-72 0 -123
-21 -159 -64 -7 -9 -20 -16 -27 -16 -10 0 -14 -14 -14 -50 l0 -50 135 0 135 0
0 53 c0 57 9 70 75 113 25 16 48 19 135 19 58 0 126 -6 152 -14 41 -12 53 -22
105 -94 32 -45 65 -89 73 -97 31 -32 54 -76 60 -115 l5 -39 100 -3 c55 -1 108
1 118 3 25 8 21 34 -5 34 -35 0 -122 55 -156 97 -24 31 -132 239 -132 256 0 3
19 15 41 26 23 12 62 37 87 56 48 37 69 42 93 23 50 -41 260 -303 321 -400 9
-14 18 -41 20 -59 l3 -34 100 -2 c55 -2 110 0 123 2 36 8 26 32 -16 37 -42 6
-120 55 -152 96 -12 15 -55 96 -96 180 -47 98 -96 182 -137 235 -112 146 -112
145 -67 225 30 51 43 61 55 42 11 -17 39 -10 79 20 98 74 149 215 84 236 -33
10 -53 -22 -32 -54 14 -22 14 -25 -3 -44 -28 -33 -95 -78 -104 -72 -5 3 -9 29
-9 59 0 30 -9 76 -19 104 -19 47 -19 50 -2 65 10 9 22 16 28 16 21 0 35 57 28
110 -8 60 -31 80 -91 80 -34 0 -45 -5 -59 -26z"/>
</g>
</svg>
