<?xml version="1.0" standalone="no"?>
<!DOCTYPE svg PUBLIC "-//W3C//DTD SVG 20010904//EN"
 "http://www.w3.org/TR/2001/REC-SVG-20010904/DTD/svg10.dtd">
<svg version="1.0" xmlns="http://www.w3.org/2000/svg"
 width="500.000000pt" height="500.000000pt" viewBox="0 0 500.000000 500.000000"
 preserveAspectRatio="xMidYMid meet">

<g transform="translate(0.000000,500.000000) scale(0.100000,-0.100000)"
fill="#000000" stroke="none">
<path d="M560 3155 c0 -13 23 -15 150 -15 142 0 150 -1 150 -19 0 -11 -4 -31
-10 -45 l-9 -25 -152 -3 c-111 -2 -153 -6 -157 -15 -3 -10 32 -13 152 -13
l156 0 -6 -27 c-3 -16 -7 -34 -10 -40 -2 -10 -43 -13 -159 -13 -131 0 -155 -2
-155 -15 0 -13 23 -15 145 -15 159 0 160 0 147 -59 l-7 -34 -140 2 c-146 2
-175 -2 -175 -25 0 -11 29 -14 151 -14 l151 0 -6 -22 c-3 -13 -6 -31 -6 -40 0
-16 -14 -18 -160 -18 -136 0 -160 -2 -160 -15 0 -13 23 -15 148 -15 82 0 151
-2 154 -5 3 -3 0 -23 -5 -45 l-11 -40 -155 -2 c-113 -2 -155 -6 -159 -15 -3
-10 32 -13 152 -13 86 0 156 -3 156 -7 0 -5 -5 -25 -11 -45 l-10 -38 -153 0
c-128 0 -155 -3 -160 -15 -5 -13 16 -15 150 -15 l156 0 -7 -37 c-4 -21 -9 -41
-11 -45 -3 -5 -75 -8 -160 -8 -130 0 -154 -2 -154 -15 0 -13 23 -15 150 -15
163 0 160 1 144 -57 -6 -23 -9 -23 -165 -23 -135 0 -159 -2 -159 -15 0 -13 23
-15 148 -15 82 0 151 -2 154 -5 3 -3 0 -23 -6 -45 l-10 -40 -158 0 c-134 0
-158 -2 -158 -15 0 -13 24 -15 154 -15 l155 0 3 -32 3 -33 166 -3 167 -2 12
52 c6 29 18 82 26 118 8 36 23 101 34 145 10 44 26 116 35 160 10 44 25 114
35 155 10 41 26 107 35 145 9 39 21 88 26 110 22 106 48 223 54 248 l7 27
-331 0 c-288 0 -331 -2 -331 -15z"/>
<path d="M1363 3155 c-44 -19 -121 -92 -143 -135 -31 -61 -45 -169 -30 -231
21 -89 60 -136 210 -252 100 -78 122 -107 118 -154 -4 -49 -39 -68 -106 -58
-58 9 -114 63 -155 149 -24 50 -29 55 -42 42 -8 -8 -15 -18 -15 -22 0 -3 -16
-29 -35 -55 -19 -27 -35 -51 -35 -54 0 -3 -16 -28 -35 -55 -49 -70 -49 -74 30
-149 81 -78 99 -91 164 -123 61 -31 74 -33 182 -36 92 -3 123 0 147 12 24 12
62 16 163 16 l133 0 -50 25 c-27 14 -58 33 -69 43 -29 24 -95 107 -95 119 0
14 150 293 158 293 4 0 17 -22 29 -48 43 -94 102 -142 175 -142 37 0 50 5 62
22 33 47 14 86 -77 155 -81 61 -80 60 -146 123 -83 79 -101 119 -101 226 0 70
4 96 22 132 34 66 119 133 208 162 14 5 -120 8 -305 9 -260 0 -337 -3 -362
-14z"/>
<path d="M2355 3142 c62 -30 117 -82 148 -142 l19 -35 -61 -93 c-75 -111 -87
-115 -146 -40 -55 70 -109 108 -154 108 -43 -1 -67 -17 -76 -52 -9 -36 8 -63
79 -127 169 -152 242 -243 265 -327 14 -53 -7 -172 -40 -229 -31 -53 -95 -113
-144 -136 l-40 -19 84 0 c78 0 83 -1 78 -20 -5 -19 0 -20 153 -20 l157 0 33
53 33 52 169 -3 c156 -3 168 -2 168 15 0 10 12 45 26 78 l26 60 73 1 c53 1 84
7 118 23 37 18 62 22 115 21 37 -1 72 -2 78 -1 7 1 42 30 78 65 60 58 66 67
66 104 0 27 11 62 31 101 l31 59 -21 29 c-32 45 -83 196 -79 239 3 33 7 39 33
45 17 3 55 12 85 19 47 11 57 17 71 46 9 19 13 37 8 40 -5 3 -9 19 -9 35 0 45
-16 67 -55 75 -79 14 -109 -22 -98 -116 6 -49 5 -50 -21 -50 -15 0 -61 -11
-104 -24 -42 -14 -94 -28 -115 -31 l-39 -6 5 -47 c6 -60 61 -209 87 -237 11
-12 20 -24 20 -28 0 -4 -16 -27 -35 -53 -29 -38 -35 -54 -35 -94 0 -42 -4 -53
-32 -79 -18 -16 -36 -28 -40 -25 -4 3 -8 183 -8 400 l0 394 -522 0 -523 0 60
-28z m1174 -266 c7 -9 11 -38 9 -73 -3 -50 -6 -58 -23 -58 -17 0 -21 9 -27 60
-5 33 -6 66 -3 73 6 16 30 15 44 -2z m-493 -433 c-4 -9 -32 -13 -99 -13 -52 0
-96 3 -99 6 -3 3 18 46 48 95 30 49 54 93 54 97 0 4 13 26 28 48 15 23 36 57
47 75 l20 34 3 -165 c1 -90 0 -170 -2 -177z"/>
<path d="M4160 3145 c-20 -22 -22 -31 -17 -84 l6 -59 -37 -5 c-43 -6 -200 -46
-222 -57 -21 -11 -17 -99 7 -152 11 -24 23 -55 27 -70 3 -14 18 -41 33 -58 18
-22 24 -36 17 -45 -55 -74 -67 -98 -68 -140 -1 -42 -5 -49 -74 -115 -62 -59
-77 -70 -95 -63 -41 15 -121 8 -174 -15 -36 -15 -71 -22 -118 -22 -66 0 -66 0
-81 -35 l-14 -35 -73 0 c-69 0 -75 -2 -125 -40 -29 -22 -57 -40 -62 -40 -6 0
-10 -22 -10 -50 l0 -50 130 0 130 0 0 49 c0 46 3 52 41 85 59 50 95 59 213 53
142 -7 155 -13 228 -115 34 -48 67 -91 74 -97 24 -21 54 -84 54 -112 l0 -30
100 -6 c55 -3 109 -3 120 0 31 8 24 33 -9 33 -34 0 -151 74 -151 96 0 8 -4 14
-8 14 -8 0 -35 50 -93 174 l-32 69 24 18 c13 10 32 21 43 25 10 3 39 21 63 40
52 40 76 42 106 11 81 -84 144 -159 184 -216 26 -36 63 -86 83 -111 48 -59 60
-82 60 -119 0 -17 3 -31 8 -32 49 -4 202 -6 220 -2 35 8 27 33 -11 33 -20 0
-52 13 -87 36 -63 41 -87 71 -126 154 -90 195 -122 251 -195 345 -78 102 -85
117 -70 163 8 22 24 53 37 68 20 26 25 27 43 17 30 -19 34 -17 90 33 56 50 86
99 95 154 8 42 -2 59 -34 62 -21 3 -25 -1 -24 -22 1 -14 5 -35 9 -47 6 -17 -2
-28 -49 -62 -30 -23 -59 -41 -64 -41 -5 0 -11 33 -14 73 -3 40 -12 87 -22 105
-17 32 -17 35 0 53 9 10 23 19 29 19 39 0 38 149 -1 177 -30 22 -87 16 -114
-12z m-140 -281 c12 -31 13 -94 1 -113 -5 -8 -16 -11 -25 -8 -23 9 -24 147 -1
147 9 0 20 -12 25 -26z"/>
<path d="M3740 2822 c0 -74 5 -88 27 -71 15 13 17 76 3 113 -17 46 -30 29 -30
-42z"/>
<path d="M3816 1867 c3 -10 9 -15 12 -12 3 3 0 11 -7 18 -10 9 -11 8 -5 -6z"/>
<path d="M3858 1855 c2 -14 6 -25 8 -25 2 0 4 11 4 25 0 14 -4 25 -9 25 -4 0
-6 -11 -3 -25z"/>
</g>
</svg>
